<svg width="41" height="54" viewBox="0 0 41 54" fill="none" xmlns="http://www.w3.org/2000/svg">
<rect x="6" y="13" width="28" height="3" rx="1.5" fill="#3C3C3C"/>
<rect x="6" y="19" width="20" height="3" rx="1.5" fill="#3C3C3C"/>
<rect x="6" y="25" width="16" height="3" rx="1.5" fill="#3C3C3C"/>
<rect x="6" y="31" width="16" height="3" rx="1.5" fill="#3C3C3C"/>
<rect x="6" y="37" width="16" height="3" rx="1.5" fill="#3C3C3C"/>
<rect x="5" y="43" width="20" height="3" rx="1.5" fill="#3C3C3C"/>
<path d="M33 1.5V7.5H38.5" stroke="#3C3C3C" stroke-width="3"/>
<path d="M29.5 1.5H3.5C2.39543 1.5 1.5 2.39543 1.5 3.5V50C1.5 51.1046 2.39543 52 3.5 52H36.5C37.6046 52 38.5 51.1046 38.5 50V44.5" stroke="#3C3C3C" stroke-width="3"/>
<path d="M29 1.5H33C36.3137 1.5 39 4.18629 39 7.5V16" stroke="#3C3C3C" stroke-width="3"/>
</svg>
