<svg width="36" height="36" viewBox="0 0 36 36" fill="none" xmlns="http://www.w3.org/2000/svg">
<circle cx="18" cy="18" r="4.5" stroke="#EFEFEF" stroke-width="3"/>
<circle cx="18" cy="18" r="11.5" stroke="#EFEFEF" stroke-width="3"/>
<path d="M2 16.5C1.17157 16.5 0.5 17.1716 0.5 18C0.5 18.8284 1.17157 19.5 2 19.5V16.5ZM14 16.5H2V19.5H14V16.5Z" fill="#EFEFEF"/>
<path d="M19.5 2C19.5 1.17157 18.8284 0.5 18 0.5C17.1716 0.5 16.5 1.17157 16.5 2H19.5ZM19.5 14V2H16.5V14H19.5Z" fill="#EFEFEF"/>
<path d="M16.5 34C16.5 34.8284 17.1716 35.5 18 35.5C18.8284 35.5 19.5 34.8284 19.5 34H16.5ZM16.5 22V34H19.5V22H16.5Z" fill="#EFEFEF"/>
<path d="M8.06067 5.93935C7.47488 5.35356 6.52514 5.35356 5.93935 5.93935C5.35356 6.52514 5.35356 7.47488 5.93935 8.06067L8.06067 5.93935ZM16.546 14.4246L8.06067 5.93935L5.93935 8.06067L14.4246 16.546L16.546 14.4246Z" fill="#EFEFEF"/>
<path d="M4.93935 28.4246C4.35356 29.0104 4.35356 29.9602 4.93935 30.5459C5.52513 31.1317 6.47488 31.1317 7.06067 30.5459L4.93935 28.4246ZM13.4246 19.9393L4.93935 28.4246L7.06067 30.5459L15.546 22.0607L13.4246 19.9393Z" fill="#EFEFEF"/>
<path d="M30.5459 8.06067C31.1317 7.47488 31.1317 6.52514 30.5459 5.93935C29.9602 5.35356 29.0104 5.35356 28.4246 5.93935L30.5459 8.06067ZM22.0607 16.546L30.5459 8.06067L28.4246 5.93935L19.9393 14.4246L22.0607 16.546Z" fill="#EFEFEF"/>
<path d="M28.4246 30.5459C29.0104 31.1317 29.9602 31.1317 30.5459 30.5459C31.1317 29.9602 31.1317 29.0104 30.5459 28.4246L28.4246 30.5459ZM19.9393 22.0607L28.4246 30.5459L30.5459 28.4246L22.0607 19.9393L19.9393 22.0607Z" fill="#EFEFEF"/>
<path d="M34 19.5C34.8284 19.5 35.5 18.8284 35.5 18C35.5 17.1716 34.8284 16.5 34 16.5V19.5ZM22 19.5H34V16.5H22V19.5Z" fill="#EFEFEF"/>
</svg>
