<svg width="238" height="28" viewBox="0 0 238 28" fill="none" xmlns="http://www.w3.org/2000/svg">
<path fill-rule="evenodd" clip-rule="evenodd" d="M237.995 9.77632V6.16403C237.995 3.43573 235.138 1.76439 233.883 1.76439H230.532C229.284 1.76439 226.419 3.43454 226.419 6.16403V10.5601C226.419 11.8318 226.95 12.7074 228.086 13.1572L232.848 15.0492C233.345 15.2651 233.343 15.2651 233.343 15.8032V19.3689C233.342 19.4893 233.294 19.6044 233.208 19.6892C233.123 19.774 233.008 19.8214 232.888 19.8211H231.538C231.478 19.8214 231.419 19.8099 231.364 19.7874C231.309 19.7648 231.259 19.7316 231.216 19.6896C231.174 19.6476 231.14 19.5977 231.117 19.5427C231.094 19.4877 231.082 19.4286 231.082 19.3689V15.4477H226.424V19.0588C226.424 21.7883 229.289 23.4584 230.536 23.4584H233.888C235.137 23.4584 238 21.7883 238 19.0588V14.6639C238 13.4113 237.448 12.507 236.333 12.0656L231.629 10.1927C231.078 9.97435 231.078 9.85983 231.078 9.41008V5.85505C231.079 5.7344 231.127 5.61892 231.213 5.53394C231.298 5.44896 231.414 5.40141 231.534 5.40173H232.884C233.004 5.40173 233.12 5.44941 233.205 5.53436C233.29 5.61931 233.338 5.73461 233.339 5.85505V9.77632H237.995Z" fill="white"/>
<path fill-rule="evenodd" clip-rule="evenodd" d="M220.55 1.94095H213.103V23.2711H217.737V14.3382H220.55C221.804 14.3382 224.691 12.9842 224.691 10.2046V6.09603C224.691 3.38085 221.804 1.94095 220.55 1.94095ZM220.061 10.411C220.06 10.4723 220.048 10.5331 220.025 10.5897C220.001 10.6463 219.966 10.6977 219.923 10.7409C219.879 10.7841 219.828 10.8183 219.771 10.8415C219.715 10.8648 219.654 10.8765 219.593 10.8762H217.737V5.41605H219.591C219.653 5.41573 219.714 5.42752 219.77 5.45073C219.827 5.47394 219.879 5.50812 219.922 5.55133C219.966 5.59453 220 5.64591 220.024 5.70252C220.048 5.75914 220.06 5.81989 220.061 5.8813V10.411Z" fill="white"/>
<path fill-rule="evenodd" clip-rule="evenodd" d="M178.399 10.201V6.09484C178.392 3.3725 175.511 1.93976 174.258 1.93976H166.816V23.2711H171.45V14.337H172.74L174.195 23.2711H178.586L176.93 13.1834C177.744 12.4891 178.399 11.4918 178.399 10.201ZM173.768 10.4217C173.768 10.4814 173.757 10.5405 173.734 10.5957C173.711 10.651 173.678 10.7011 173.636 10.7434C173.594 10.7856 173.544 10.8191 173.489 10.8419C173.434 10.8647 173.375 10.8764 173.315 10.8762H171.45V5.41605H173.307C173.429 5.41541 173.545 5.46299 173.632 5.54838C173.718 5.63378 173.768 5.75004 173.769 5.87176L173.768 10.4217Z" fill="white"/>
<path fill-rule="evenodd" clip-rule="evenodd" d="M190.04 12.0656L185.337 10.1927C184.784 9.97435 184.784 9.85983 184.784 9.41008V5.85505C184.785 5.7344 184.833 5.61892 184.919 5.53394C185.004 5.44896 185.12 5.40141 185.24 5.40173H186.591C186.712 5.40173 186.827 5.44941 186.912 5.53436C186.997 5.61931 187.046 5.73461 187.046 5.85505V9.77632H191.704V6.16403C191.704 3.43573 188.839 1.76439 187.591 1.76439H184.24C182.991 1.76439 180.128 3.43454 180.128 6.16403V10.5601C180.128 11.8318 180.659 12.7074 181.795 13.1572L186.557 15.0492C187.053 15.2651 187.052 15.2651 187.052 15.8032V19.3689C187.051 19.4894 187.003 19.6045 186.917 19.6893C186.832 19.774 186.716 19.8214 186.596 19.8211H185.246C185.126 19.8214 185.01 19.774 184.925 19.6893C184.839 19.6045 184.791 19.4894 184.79 19.3689V15.4477H180.133V19.0588C180.133 21.7883 182.997 23.4584 184.245 23.4584H187.596C188.845 23.4584 191.708 21.7883 191.708 19.0588V14.6639C191.704 13.4113 191.15 12.507 190.04 12.0656Z" fill="white"/>
<path d="M211.375 1.94095H206.737V23.2711H211.375V1.94095Z" fill="white"/>
<path fill-rule="evenodd" clip-rule="evenodd" d="M200.378 10.8762H198.07V1.94095H193.432V23.2711H198.07V14.337H200.378V23.2711H205.008V1.94095H200.378V10.8762Z" fill="white"/>
<path fill-rule="evenodd" clip-rule="evenodd" d="M80.8299 1.94095H76.1938V23.2711H85.4659V19.3379H80.8299V1.94095Z" fill="white"/>
<path fill-rule="evenodd" clip-rule="evenodd" d="M57.0412 1.76439H53.6897C52.442 1.76439 49.5775 3.43454 49.5775 6.16403V19.0981C49.5775 21.8252 52.442 23.4489 53.6897 23.4489H57.0412C58.2889 23.4489 61.1534 21.8252 61.1534 19.0981V6.16403C61.1534 3.43573 58.2901 1.76439 57.0412 1.76439ZM56.4959 19.357C56.4962 19.4166 56.4847 19.4757 56.4621 19.5308C56.4395 19.586 56.4062 19.6361 56.3641 19.6782C56.322 19.7204 56.272 19.7538 56.217 19.7765C56.162 19.7991 56.103 19.8106 56.0435 19.8103H54.6874C54.6279 19.8106 54.569 19.7991 54.5139 19.7765C54.4589 19.7538 54.4089 19.7204 54.3668 19.6782C54.3248 19.6361 54.2914 19.586 54.2688 19.5308C54.2462 19.4757 54.2347 19.4166 54.235 19.357V5.85505C54.2357 5.73461 54.2838 5.61931 54.3691 5.53436C54.4543 5.44941 54.5696 5.40173 54.6898 5.40173H56.0411C56.1613 5.40173 56.2766 5.44941 56.3619 5.53436C56.4471 5.61931 56.4953 5.73461 56.4959 5.85505V19.357Z" fill="white"/>
<path fill-rule="evenodd" clip-rule="evenodd" d="M74.4651 10.201V6.09484C74.458 3.3725 71.578 1.93976 70.3243 1.93976H62.8821V23.2711H67.5158V14.337H68.8075L70.2612 23.2711H74.6532L72.996 13.1834C73.8091 12.4891 74.4651 11.4918 74.4651 10.201ZM69.8386 10.4217C69.8387 10.4814 69.8271 10.5406 69.8044 10.5958C69.7816 10.6511 69.7482 10.7012 69.7061 10.7435C69.6639 10.7857 69.6139 10.8192 69.5587 10.842C69.5036 10.8647 69.4446 10.8764 69.385 10.8762H67.5158V5.41605H69.3731C69.4945 5.41541 69.6113 5.46299 69.6979 5.54838C69.7844 5.63378 69.8337 5.75004 69.835 5.87176L69.8386 10.4217Z" fill="white"/>
<path fill-rule="evenodd" clip-rule="evenodd" d="M42.4246 16.4283L40.8102 1.94095H37.4016L35.7884 16.4283L34.2288 1.94095H29.8356L32.131 23.2711H37.9421L39.1041 12.9866L40.2661 23.2711H46.0773L48.3715 1.94095H43.9831L42.4246 16.4283Z" fill="white"/>
<path fill-rule="evenodd" clip-rule="evenodd" d="M94.6345 1.94095H87.1946V23.2711H94.6345C95.8846 23.2711 98.7693 21.8395 98.7693 19.1112V6.08291C98.7693 3.35341 95.8846 1.94095 94.6345 1.94095ZM94.1404 19.3582C94.1402 19.4182 94.1283 19.4776 94.1052 19.5329C94.0822 19.5883 94.0485 19.6386 94.006 19.6809C93.9635 19.7232 93.9132 19.7568 93.8578 19.7796C93.8024 19.8024 93.7431 19.8141 93.6832 19.8139H91.8247V5.40173H93.6832C93.743 5.40141 93.8023 5.41293 93.8577 5.43562C93.9131 5.4583 93.9635 5.49171 94.0059 5.53394C94.0484 5.57616 94.0821 5.62636 94.1052 5.68167C94.1283 5.73698 94.1402 5.7963 94.1404 5.85625C94.1392 9.71786 94.1392 15.4178 94.1404 19.3546V19.3582Z" fill="white"/>
<path fill-rule="evenodd" clip-rule="evenodd" d="M113.148 1.76439H109.796C108.547 1.76439 105.683 3.43454 105.683 6.16403V19.0981C105.683 21.8252 108.549 23.4489 109.796 23.4489H113.148C114.395 23.4489 117.26 21.8252 117.26 19.0981V6.16403C117.26 3.43573 114.395 1.76439 113.148 1.76439ZM112.602 19.357C112.603 19.4166 112.591 19.4757 112.569 19.5308C112.546 19.586 112.513 19.6361 112.471 19.6782C112.429 19.7204 112.379 19.7538 112.324 19.7765C112.269 19.7991 112.21 19.8106 112.15 19.8103H110.794C110.734 19.8108 110.675 19.7994 110.62 19.7768C110.565 19.7542 110.515 19.7208 110.473 19.6786C110.431 19.6364 110.398 19.5862 110.375 19.531C110.353 19.4758 110.341 19.4167 110.342 19.357V5.85505C110.342 5.7344 110.391 5.61892 110.476 5.53394C110.562 5.44896 110.677 5.40141 110.798 5.40173H112.148C112.268 5.40141 112.384 5.44896 112.469 5.53394C112.555 5.61892 112.603 5.7344 112.604 5.85505L112.602 19.357Z" fill="white"/>
<path fill-rule="evenodd" clip-rule="evenodd" d="M155.763 1.94095L153.469 23.2711H157.859L158.396 18.2607H161.055L161.593 23.2711H165.983L163.686 1.94095H155.763ZM158.817 14.337L159.724 5.86698L160.633 14.337H158.817Z" fill="white"/>
<path fill-rule="evenodd" clip-rule="evenodd" d="M118.989 23.2711H123.625V14.337H127.72V10.8774H123.625V5.86698H128.967V1.94095H118.989V23.2711Z" fill="white"/>
<path fill-rule="evenodd" clip-rule="evenodd" d="M149.342 1.94095L147.784 16.4283L146.169 1.94095H142.76L141.146 16.4283L139.588 1.94095H135.201L137.495 23.2711H143.306L144.468 12.9866L145.63 23.2711H151.441L153.735 1.94095H149.342Z" fill="white"/>
<path fill-rule="evenodd" clip-rule="evenodd" d="M0 0V23.2628L11.4616 28L22.9232 23.2628V0H0ZM20.9885 21.972L11.464 25.9087L1.93943 21.972V1.93856H20.9885V21.972Z" fill="white"/>
<path fill-rule="evenodd" clip-rule="evenodd" d="M19.0538 20.674V12.5416L15.2821 14.1008V18.1426L13.3474 18.9418V12.4032H14.3142L17.118 11.2449V8.62511H13.3474V7.65523L15.1845 6.49806V3.87712H7.73868V6.49568L9.57691 7.65523V8.62511H5.8052V11.246L8.60898 12.4032H9.57691V18.9418L7.63986 18.1426V14.1008L3.86934 12.5416V20.674L11.4616 23.8103L19.0538 20.674Z" fill="white"/>
</svg>
